<svg width="1500" height="246" viewBox="0 0 1500 246" fill="none" xmlns="http://www.w3.org/2000/svg">
<g clip-path="url(#clip0_39_3)">
<g clip-path="url(#clip1_39_3)">
<g clip-path="url(#clip2_39_3)">
<g clip-path="url(#clip3_39_3)">
<g clip-path="url(#clip4_39_3)">
<path d="M391.795 141.123L456.235 76.6834C458.812 74.1058 458.812 69.4661 456.235 66.8885L391.795 1.93319C389.217 -0.644398 384.578 -0.644398 382 1.93319L317.56 66.8885C314.983 69.4661 314.983 74.1058 317.56 76.6834L335.088 94.211C339.212 98.3351 339.212 105.037 335.088 109.161L319.107 125.142C314.983 129.266 308.281 129.266 304.157 125.142L286.629 107.614C284.052 105.037 279.412 105.037 276.834 107.614L259.307 125.142C255.183 129.266 248.481 129.266 244.357 125.142L228.891 108.646C224.767 104.521 224.767 97.8196 228.891 93.6955L246.419 76.1678C248.996 73.5903 248.996 68.9506 246.419 66.373L181.979 1.93319C179.401 -0.644398 174.762 -0.644398 172.184 1.93319L107.229 66.8885C104.651 69.4661 104.651 74.1058 107.229 76.6834L124.756 94.211C128.881 98.3351 128.881 105.037 124.756 109.161L108.775 125.142C104.651 129.266 97.9495 129.266 93.8253 125.142L76.2977 107.614C73.7201 105.037 69.0804 105.037 66.5029 107.614L2.57858 171.539C0.000987768 174.116 0.000987768 178.756 2.57858 181.334L67.0184 245.773C69.596 248.351 74.2356 248.351 76.8132 245.773L141.253 181.334C143.831 178.756 143.831 174.116 141.253 171.539L123.725 154.011C119.601 149.887 119.601 143.185 123.725 139.061L139.706 123.08C143.831 118.956 150.532 118.956 154.657 123.08L172.184 140.608C174.762 143.185 179.401 143.185 181.979 140.608L199.507 123.08C203.631 118.956 210.332 118.956 214.457 123.08L230.438 139.061C234.562 143.185 234.562 149.887 230.438 154.011L212.91 171.539C210.332 174.116 210.332 178.756 212.91 181.334L277.35 245.773C279.927 248.351 284.567 248.351 287.145 245.773L351.585 181.334C354.162 178.756 354.162 174.116 351.585 171.539L334.057 154.011C329.933 149.887 329.933 143.185 334.057 139.061L350.038 123.08C354.162 118.956 360.864 118.956 364.988 123.08L382.516 140.608C385.093 143.701 389.217 143.701 391.795 141.123ZM94.3408 199.377C81.9684 211.749 61.8632 211.749 48.9752 199.377C36.6028 187.004 36.6028 166.899 48.9752 154.011C61.3477 141.639 81.4529 141.639 94.3408 154.011C106.713 166.384 106.713 187.004 94.3408 199.377ZM154.141 48.8454C166.513 36.4729 186.619 36.4729 199.507 48.8454C211.879 61.2178 211.879 81.323 199.507 94.211C187.134 106.583 167.029 106.583 154.141 94.211C141.769 81.8386 141.769 61.2178 154.141 48.8454ZM304.672 199.377C292.3 211.749 272.195 211.749 259.307 199.377C246.934 187.004 246.934 166.899 259.307 154.011C271.679 141.639 291.784 141.639 304.672 154.011C317.045 166.384 317.045 187.004 304.672 199.377ZM409.838 48.8454C422.211 61.2178 422.211 81.323 409.838 94.211C397.466 106.583 377.36 106.583 364.472 94.211C352.1 81.8386 352.1 61.7333 364.472 48.8454C376.845 36.4729 396.95 36.4729 409.838 48.8454Z" fill="white"/>
</g>
</g>
</g>
<mask id="mask0_39_3" style="mask-type:luminance" maskUnits="userSpaceOnUse" x="0" y="0" width="1498" height="248">
<g clip-path="url(#clip5_39_3)">
<g clip-path="url(#clip6_39_3)">
<path d="M508.58 46.113C508.58 37.8459 505.46 31.1441 501.613 31.1441C497.765 31.1441 494.645 37.8459 494.645 46.113V201.594C494.645 209.861 497.765 216.562 501.613 216.562C505.46 216.562 508.58 209.861 508.58 201.594V46.113Z" fill="white"/>
<g clip-path="url(#clip7_39_3)">
<g clip-path="url(#clip8_39_3)">
<g clip-path="url(#clip9_39_3)">
<g clip-path="url(#clip10_39_3)">
<path d="M545.11 166.228V49.9178H629.859V66.562H561.754V99.784H619.892V116.428H561.754V149.617H629.859V166.228H545.11ZM648.131 95.8306V79.8508H669.194V53.24H685.174V79.8508H713.578V95.8306H685.174V150.248H713.578V166.228H685.174C683.025 166.228 680.977 165.807 679.028 164.965C677.079 164.124 675.373 162.994 673.911 161.577C672.45 160.137 671.298 158.443 670.456 156.494C669.615 154.545 669.194 152.463 669.194 150.248V95.8306H648.131ZM816.566 95.8306V166.228H800.587V95.8306H756.069V166.228H740.156V46.5956H756.069V95.0997C756.18 92.9956 756.667 91.0023 757.531 89.1197C758.395 87.2593 759.547 85.6425 760.986 84.2693C762.404 82.8962 764.065 81.8109 765.969 81.0136C767.852 80.2384 769.879 79.8508 772.049 79.8508H800.587C802.802 79.8508 804.883 80.2716 806.832 81.1132C808.781 81.9549 810.476 83.0844 811.915 84.5019C813.333 85.9415 814.462 87.6358 815.304 89.5848C816.146 91.5339 816.566 93.6158 816.566 95.8306ZM916.232 95.8306V131.179H859.057V150.248H916.232V166.228H859.057C856.887 166.228 854.838 165.807 852.911 164.965C850.962 164.124 849.268 162.994 847.828 161.577C846.389 160.137 845.248 158.443 844.406 156.494C843.587 154.545 843.177 152.463 843.177 150.248V95.8306C843.177 93.6158 843.587 91.5339 844.406 89.5848C845.248 87.6358 846.389 85.9415 847.828 84.5019C849.268 83.0844 850.962 81.9549 852.911 81.1132C854.838 80.2716 856.887 79.8508 859.057 79.8508H900.253C902.467 79.8508 904.549 80.2716 906.498 81.1132C908.447 81.9549 910.142 83.0844 911.581 84.5019C913.021 85.9415 914.162 87.6358 915.003 89.5848C915.823 91.5339 916.232 93.6158 916.232 95.8306ZM900.253 95.8306H859.057V115.199H900.253V95.8306ZM991.679 95.8306H958.723V166.228H942.843V79.8508H958.723V95.0997C958.834 92.9956 959.321 91.0023 960.185 89.1197C961.049 87.2593 962.2 85.6425 963.64 84.2693C965.08 82.8962 966.741 81.8109 968.623 81.0136C970.528 80.2384 972.555 79.8508 974.703 79.8508H991.679C993.894 79.8508 995.954 80.2716 997.859 81.1132C999.786 81.9549 1001.48 83.0844 1002.94 84.5019C1004.4 85.9415 1005.56 87.6358 1006.4 89.5848C1007.24 91.5339 1007.66 93.6158 1007.66 95.8306V110.415H991.679V95.8306ZM1029.12 166.228V49.9178H1113.9V66.562H1045.76V99.784H1103.9V116.428H1045.76V166.228H1029.12ZM1210.15 95.8306V150.248C1210.15 152.463 1209.73 154.545 1208.88 156.494C1208.07 158.443 1206.94 160.137 1205.5 161.577C1204.06 162.994 1202.38 164.124 1200.48 164.965C1198.55 165.807 1196.48 166.228 1194.27 166.228H1151.34C1149.2 166.228 1147.15 165.807 1145.2 164.965C1143.25 164.124 1141.55 162.994 1140.12 161.577C1138.68 160.137 1137.55 158.443 1136.73 156.494C1135.88 154.545 1135.46 152.463 1135.46 150.248V95.8306C1135.46 93.6158 1135.88 91.5339 1136.73 89.5848C1137.55 87.6358 1138.68 85.9415 1140.12 84.5019C1141.55 83.0844 1143.25 81.9549 1145.2 81.1132C1147.15 80.2716 1149.2 79.8508 1151.34 79.8508H1194.27C1196.48 79.8508 1198.55 80.2716 1200.48 81.1132C1202.38 81.9549 1204.06 83.0844 1205.5 84.5019C1206.94 85.9415 1208.07 87.6358 1208.88 89.5848C1209.73 91.5339 1210.15 93.6158 1210.15 95.8306ZM1194.27 95.8306H1151.34V150.248H1194.27V95.8306ZM1285.59 95.8306H1252.64V166.228H1236.76V79.8508H1252.64V95.0997C1252.75 92.9956 1253.24 91.0023 1254.1 89.1197C1254.96 87.2593 1256.12 85.6425 1257.55 84.2693C1258.99 82.8962 1260.66 81.8109 1262.54 81.0136C1264.44 80.2384 1266.47 79.8508 1268.62 79.8508H1285.59C1287.81 79.8508 1289.87 80.2716 1291.77 81.1132C1293.7 81.9549 1295.39 83.0844 1296.86 84.5019C1298.32 85.9415 1299.47 87.6358 1300.31 89.5848C1301.13 91.5339 1301.54 93.6158 1301.54 95.8306V110.415H1285.59V95.8306ZM1321.41 146.926V95.8306C1321.41 93.6158 1321.83 91.5339 1322.67 89.5848C1323.51 87.6358 1324.65 85.9415 1326.09 84.5019C1327.51 83.0844 1329.19 81.9549 1331.14 81.1132C1333.09 80.2716 1335.15 79.8508 1337.32 79.8508H1365.96C1368.06 79.8508 1370.06 80.2384 1371.94 81.0136C1373.84 81.8109 1375.51 82.8962 1376.95 84.2693C1378.37 85.6425 1379.52 87.2593 1380.41 89.1197C1381.32 91.0023 1381.79 92.9956 1381.84 95.0997V79.8508H1397.82V185.131C1397.82 187.346 1397.4 189.428 1396.56 191.377C1395.71 193.326 1394.58 195.009 1393.17 196.427C1391.73 197.866 1390.03 199.007 1388.08 199.849C1386.13 200.69 1384.05 201.111 1381.84 201.111H1331.41V185.131H1381.84V162.906H1337.32C1335.15 162.906 1333.09 162.485 1331.14 161.643C1329.19 160.802 1327.51 159.672 1326.09 158.255C1324.65 156.815 1323.51 155.121 1322.67 153.172C1321.83 151.223 1321.41 149.141 1321.41 146.926ZM1337.32 146.926H1381.84V95.8306H1337.32V146.926ZM1497.48 95.8306V131.179H1440.31V150.248H1497.48V166.228H1440.31C1438.16 166.228 1436.11 165.807 1434.16 164.965C1432.21 164.124 1430.52 162.994 1429.08 161.577C1427.64 160.137 1426.51 158.443 1425.69 156.494C1424.85 154.545 1424.43 152.463 1424.43 150.248V95.8306C1424.43 93.6158 1424.85 91.5339 1425.69 89.5848C1426.51 87.6358 1427.64 85.9415 1429.08 84.5019C1430.52 83.0844 1432.21 81.9549 1434.16 81.1132C1436.11 80.2716 1438.16 79.8508 1440.31 79.8508H1481.5C1483.74 79.8508 1485.82 80.2716 1487.75 81.1132C1489.7 81.9549 1491.39 83.0844 1492.83 84.5019C1494.27 85.9415 1495.41 87.6358 1496.25 89.5848C1497.07 91.5339 1497.48 93.6158 1497.48 95.8306ZM1481.5 95.8306H1440.31V115.199H1481.5V95.8306Z" fill="white"/>
</g>
</g>
</g>
</g>
<g clip-path="url(#clip11_39_3)">
<g clip-path="url(#clip12_39_3)">
<path d="M391.795 141.123L456.235 76.6834C458.812 74.1058 458.812 69.4661 456.235 66.8885L391.795 1.93319C389.217 -0.644398 384.578 -0.644398 382 1.93319L317.56 66.8885C314.983 69.4661 314.983 74.1058 317.56 76.6834L335.088 94.211C339.212 98.3351 339.212 105.037 335.088 109.161L319.107 125.142C314.983 129.266 308.281 129.266 304.157 125.142L286.629 107.614C284.052 105.037 279.412 105.037 276.834 107.614L259.307 125.142C255.183 129.266 248.481 129.266 244.357 125.142L228.891 108.646C224.767 104.521 224.767 97.8196 228.891 93.6955L246.419 76.1678C248.996 73.5903 248.996 68.9506 246.419 66.373L181.979 1.93319C179.401 -0.644398 174.762 -0.644398 172.184 1.93319L107.229 66.8885C104.651 69.4661 104.651 74.1058 107.229 76.6834L124.756 94.211C128.881 98.3351 128.881 105.037 124.756 109.161L108.775 125.142C104.651 129.266 97.9495 129.266 93.8253 125.142L76.2977 107.614C73.7201 105.037 69.0804 105.037 66.5029 107.614L2.57858 171.539C0.000987768 174.116 0.000987768 178.756 2.57858 181.334L67.0184 245.773C69.596 248.351 74.2356 248.351 76.8132 245.773L141.253 181.334C143.831 178.756 143.831 174.116 141.253 171.539L123.725 154.011C119.601 149.887 119.601 143.185 123.725 139.061L139.706 123.08C143.831 118.956 150.532 118.956 154.657 123.08L172.184 140.608C174.762 143.185 179.401 143.185 181.979 140.608L199.507 123.08C203.631 118.956 210.332 118.956 214.457 123.08L230.438 139.061C234.562 143.185 234.562 149.887 230.438 154.011L212.91 171.539C210.332 174.116 210.332 178.756 212.91 181.334L277.35 245.773C279.927 248.351 284.567 248.351 287.145 245.773L351.585 181.334C354.162 178.756 354.162 174.116 351.585 171.539L334.057 154.011C329.933 149.887 329.933 143.185 334.057 139.061L350.038 123.08C354.162 118.956 360.864 118.956 364.988 123.08L382.516 140.608C385.093 143.701 389.217 143.701 391.795 141.123ZM94.3408 199.377C81.9684 211.749 61.8632 211.749 48.9752 199.377C36.6028 187.004 36.6028 166.899 48.9752 154.011C61.3477 141.639 81.4529 141.639 94.3408 154.011C106.713 166.384 106.713 187.004 94.3408 199.377ZM154.141 48.8454C166.513 36.4729 186.619 36.4729 199.507 48.8454C211.879 61.2178 211.879 81.323 199.507 94.211C187.134 106.583 167.029 106.583 154.141 94.211C141.769 81.8386 141.769 61.2178 154.141 48.8454ZM304.672 199.377C292.3 211.749 272.195 211.749 259.307 199.377C246.934 187.004 246.934 166.899 259.307 154.011C271.679 141.639 291.784 141.639 304.672 154.011C317.045 166.384 317.045 187.004 304.672 199.377ZM409.838 48.8454C422.211 61.2178 422.211 81.323 409.838 94.211C397.466 106.583 377.36 106.583 364.472 94.211C352.1 81.8386 352.1 61.7333 364.472 48.8454C376.845 36.4729 396.95 36.4729 409.838 48.8454Z" fill="black"/>
</g>
</g>
</g>
</g>
</mask>
<g mask="url(#mask0_39_3)">
<path d="M1497.54 0H0.645386V247.707H1497.54V0Z" fill="#00FF85"/>
</g>
</g>
</g>
<defs>
<clipPath id="clip0_39_3">
<rect width="1500" height="246" fill="white" transform="translate(-0.909119 0.853271)"/>
</clipPath>
<clipPath id="clip1_39_3">
<rect width="1496.89" height="247.707" fill="white" transform="translate(0.645386)"/>
</clipPath>
<clipPath id="clip2_39_3">
<rect width="1496.89" height="247.707" fill="white" transform="translate(0.645386)"/>
</clipPath>
<clipPath id="clip3_39_3">
<rect width="457.523" height="247.707" fill="white" transform="translate(0.645386)"/>
</clipPath>
<clipPath id="clip4_39_3">
<rect width="457.523" height="247.707" fill="white" transform="translate(0.645386)"/>
</clipPath>
<clipPath id="clip5_39_3">
<rect width="1496.89" height="247.707" fill="white" transform="translate(0.645386)"/>
</clipPath>
<clipPath id="clip6_39_3">
<rect width="1496.89" height="247.707" fill="white" transform="translate(0.645386)"/>
</clipPath>
<clipPath id="clip7_39_3">
<rect width="952.479" height="154.515" fill="white" transform="translate(545.057 46.5956)"/>
</clipPath>
<clipPath id="clip8_39_3">
<rect width="952.479" height="154.515" fill="white" transform="translate(545.057 46.5956)"/>
</clipPath>
<clipPath id="clip9_39_3">
<rect width="952.479" height="154.515" fill="white" transform="translate(545.057 46.5956)"/>
</clipPath>
<clipPath id="clip10_39_3">
<rect width="952.479" height="154.515" fill="white" transform="translate(545.057 46.5956)"/>
</clipPath>
<clipPath id="clip11_39_3">
<rect width="457.523" height="247.707" fill="white" transform="translate(0.645386)"/>
</clipPath>
<clipPath id="clip12_39_3">
<rect width="457.523" height="247.707" fill="white" transform="translate(0.645386)"/>
</clipPath>
</defs>
</svg>
