<svg xmlns="http://www.w3.org/2000/svg" version="1.1" xmlns:xlink="http://www.w3.org/1999/xlink" xmlns:svgjs="http://svgjs.dev/svgjs" width="1500" height="246" viewBox="0 0 1500 246"><g transform="matrix(1,0,0,1,-0.9090909090911055,0.8532946154881103)"><svg viewBox="0 0 396 65" data-background-color="#ffffff" preserveAspectRatio="xMidYMid meet" height="246" width="1500" xmlns="http://www.w3.org/2000/svg" xmlns:xlink="http://www.w3.org/1999/xlink"><g id="tight-bounds" transform="matrix(1,0,0,1,0.24000000000003752,-0.22546402441759028)"><svg viewBox="0 0 395.5199999999999 65.45092804883515" height="65.45092804883515" width="395.5199999999999"><g><svg viewBox="0 0 621.5885996501405 102.86091907280934" height="65.45092804883515" width="395.5199999999999"><g></g><g transform="matrix(1,0,0,1,226.06859965014053,19.348981208890407)"><svg viewBox="0 0 395.52 64.16295665502852" height="64.16295665502852" width="395.52"><g id="textblocktransform"><svg viewBox="0 0 395.52 64.16295665502852" height="64.16295665502852" width="395.52" id="textblock"><g><svg viewBox="0 0 395.52 64.16295665502852" height="64.16295665502852" width="395.52"><g transform="matrix(1,0,0,1,0,0)"><svg width="395.52" viewBox="4.49 -36.01 286.67 46.51" height="64.16295665502852" data-palette-color="url(#9970dd3f-b38a-469a-81b8-ab37314d1c62)"><g class="wordmark-text-0" data-fill-palette-color="primary" id="text-0"></g></svg></g></svg></g></svg></g></svg></g><g><svg viewBox="0 0 189.98764969223373 102.86091907280934" height="102.86091907280934" width="189.98764969223373"><g><svg xmlns="http://www.w3.org/2000/svg" xmlns:xlink="http://www.w3.org/1999/xlink" version="1.1" x="0" y="0" viewBox="5.625 25.925000000000004 88.75 48.04999999999999" style="enable-background:new 0 0 100 100;" xml:space="preserve" height="102.86091907280934" width="189.98764969223373" class="icon-icon-0" data-fill-palette-color="accent" id="icon-0"><path d="M81.5 53.3L94 40.8C94.5 40.3 94.5 39.4 94 38.9L81.5 26.3C81 25.8 80.1 25.8 79.6 26.3L67.1 38.9C66.6 39.4 66.6 40.3 67.1 40.8L70.5 44.2C71.3 45 71.3 46.3 70.5 47.1L67.4 50.2C66.6 51 65.3 51 64.5 50.2L61.1 46.8C60.6 46.3 59.7 46.3 59.2 46.8L55.8 50.2C55 51 53.7 51 52.9 50.2L49.9 47C49.1 46.2 49.1 44.9 49.9 44.1L53.3 40.7C53.8 40.2 53.8 39.3 53.3 38.8L40.8 26.3C40.3 25.8 39.4 25.8 38.9 26.3L26.3 38.9C25.8 39.4 25.8 40.3 26.3 40.8L29.7 44.2C30.5 45 30.5 46.3 29.7 47.1L26.6 50.2C25.8 51 24.5 51 23.7 50.2L20.3 46.8C19.8 46.3 18.9 46.3 18.4 46.8L6 59.2C5.5 59.7 5.5 60.6 6 61.1L18.5 73.6C19 74.1 19.9 74.1 20.4 73.6L32.9 61.1C33.4 60.6 33.4 59.7 32.9 59.2L29.5 55.8C28.7 55 28.7 53.7 29.5 52.9L32.6 49.8C33.4 49 34.7 49 35.5 49.8L38.9 53.2C39.4 53.7 40.3 53.7 40.8 53.2L44.2 49.8C45 49 46.3 49 47.1 49.8L50.2 52.9C51 53.7 51 55 50.2 55.8L46.8 59.2C46.3 59.7 46.3 60.6 46.8 61.1L59.3 73.6C59.8 74.1 60.7 74.1 61.2 73.6L73.7 61.1C74.2 60.6 74.2 59.7 73.7 59.2L70.3 55.8C69.5 55 69.5 53.7 70.3 52.9L73.4 49.8C74.2 49 75.5 49 76.3 49.8L79.7 53.2C80.2 53.8 81 53.8 81.5 53.3M23.8 64.6C21.4 67 17.5 67 15 64.6 12.6 62.2 12.6 58.3 15 55.8 17.4 53.4 21.3 53.4 23.8 55.8 26.2 58.2 26.2 62.2 23.8 64.6M35.4 35.4C37.8 33 41.7 33 44.2 35.4 46.6 37.8 46.6 41.7 44.2 44.2 41.8 46.6 37.9 46.6 35.4 44.2 33 41.8 33 37.8 35.4 35.4M64.6 64.6C62.2 67 58.3 67 55.8 64.6 53.4 62.2 53.4 58.3 55.8 55.8 58.2 53.4 62.1 53.4 64.6 55.8 67 58.2 67 62.2 64.6 64.6M85 35.4C87.4 37.8 87.4 41.7 85 44.2 82.6 46.6 78.7 46.6 76.2 44.2 73.8 41.8 73.8 37.9 76.2 35.4 78.6 33 82.5 33 85 35.4" fill="#8d2161" data-fill-palette-color="accent"></path></svg></g></svg></g></svg></g><defs></defs><mask id="bbd4408f-d79b-4351-80e3-62e11017633a"><g id="SvgjsG1054"><svg viewBox="0 0 395.5199999999999 65.45092804883515" height="65.45092804883515" width="395.5199999999999"><g><svg viewBox="0 0 621.5885996501405 102.86091907280934" height="65.45092804883515" width="395.5199999999999"><g><rect width="5.78628164732174" height="76.99554798603423" x="205.13498384752626" y="12.932685543387556" fill="white" opacity="1" stroke-width="0" stroke="transparent" fill-opacity="1" class="rect-yte-0" rx="1%" id="SvgjsRect1053" data-palette-color="url(#9970dd3f-b38a-469a-81b8-ab37314d1c62)"></rect></g><g transform="matrix(1,0,0,1,226.06859965014053,19.348981208890407)"><svg viewBox="0 0 395.52 64.16295665502852" height="64.16295665502852" width="395.52"><g id="SvgjsG1052"><svg viewBox="0 0 395.52 64.16295665502852" height="64.16295665502852" width="395.52" id="SvgjsSvg1051"><g><svg viewBox="0 0 395.52 64.16295665502852" height="64.16295665502852" width="395.52"><g transform="matrix(1,0,0,1,0,0)"><svg width="395.52" viewBox="4.49 -36.01 286.67 46.51" height="64.16295665502852" data-palette-color="url(#9970dd3f-b38a-469a-81b8-ab37314d1c62)"><g class="wordmark-text-0" data-fill-palette-color="primary" id="SvgjsG1050"><path d="M4.49 0L4.49-35.01 30-35.01 30-30 9.5-30 9.5-20 27-20 27-14.99 9.5-14.99 9.5-5 30-5 30 0 4.49 0ZM35.5-21.19L35.5-26 41.84-26 41.84-34.01 46.65-34.01 46.65-26 55.2-26 55.2-21.19 46.65-21.19 46.65-4.81 55.2-4.81 55.2 0 46.65 0Q45.68 0 44.8-0.38 43.92-0.76 43.26-1.4 42.6-2.05 42.22-2.93 41.84-3.81 41.84-4.81L41.84-4.81 41.84-21.19 35.5-21.19ZM86.2-21.19L86.2 0 81.39 0 81.39-21.19 67.99-21.19 67.99 0 63.2 0 63.2-36.01 67.99-36.01 67.99-21.41Q68.04-22.36 68.43-23.21 68.82-24.05 69.47-24.67 70.11-25.29 70.97-25.65 71.82-26 72.8-26L72.8-26 81.39-26Q82.39-26 83.27-25.62 84.15-25.24 84.8-24.6 85.44-23.95 85.82-23.07 86.2-22.19 86.2-21.19L86.2-21.19ZM116.2-21.19L116.2-10.55 98.99-10.55 98.99-4.81 116.2-4.81 116.2 0 98.99 0Q98.01 0 97.14-0.38 96.26-0.76 95.61-1.4 94.96-2.05 94.58-2.93 94.21-3.81 94.21-4.81L94.21-4.81 94.21-21.19Q94.21-22.19 94.58-23.07 94.96-23.95 95.61-24.6 96.26-25.24 97.14-25.62 98.01-26 98.99-26L98.99-26 111.39-26Q112.39-26 113.27-25.62 114.15-25.24 114.8-24.6 115.45-23.95 115.83-23.07 116.2-22.19 116.2-21.19L116.2-21.19ZM111.39-21.19L98.99-21.19 98.99-15.36 111.39-15.36 111.39-21.19ZM138.91-21.19L128.99-21.19 128.99 0 124.21 0 124.21-26 128.99-26 128.99-21.41Q129.04-22.36 129.43-23.21 129.82-24.05 130.47-24.67 131.12-25.29 131.97-25.65 132.83-26 133.8-26L133.8-26 138.91-26Q139.91-26 140.77-25.62 141.64-25.24 142.3-24.6 142.96-23.95 143.34-23.07 143.72-22.19 143.72-21.19L143.72-21.19 143.72-16.8 138.91-16.8 138.91-21.19ZM150.18 0L150.18-35.01 175.7-35.01 175.7-30 155.19-30 155.19-20 172.69-20 172.69-14.99 155.19-14.99 155.19 0 150.18 0ZM204.67-21.19L204.67-4.81Q204.67-3.81 204.29-2.93 203.92-2.05 203.27-1.4 202.62-0.76 201.76-0.38 200.89 0 199.89 0L199.89 0 186.97 0Q186 0 185.12-0.38 184.24-0.76 183.59-1.4 182.94-2.05 182.57-2.93 182.19-3.81 182.19-4.81L182.19-4.81 182.19-21.19Q182.19-22.19 182.57-23.07 182.94-23.95 183.59-24.6 184.24-25.24 185.12-25.62 186-26 186.97-26L186.97-26 199.89-26Q200.89-26 201.76-25.62 202.62-25.24 203.27-24.6 203.92-23.95 204.29-23.07 204.67-22.19 204.67-21.19L204.67-21.19ZM199.89-21.19L186.97-21.19 186.97-4.81 199.89-4.81 199.89-21.19ZM227.38-21.19L217.46-21.19 217.46 0 212.68 0 212.68-26 217.46-26 217.46-21.41Q217.51-22.36 217.9-23.21 218.29-24.05 218.94-24.67 219.59-25.29 220.44-25.65 221.3-26 222.27-26L222.27-26 227.38-26Q228.38-26 229.24-25.62 230.11-25.24 230.77-24.6 231.43-23.95 231.81-23.07 232.18-22.19 232.18-21.19L232.18-21.19 232.18-16.8 227.38-16.8 227.38-21.19ZM238.16-5.81L238.16-21.19Q238.16-22.19 238.54-23.07 238.92-23.95 239.57-24.6 240.21-25.24 241.09-25.62 241.97-26 242.95-26L242.95-26 251.57-26Q252.52-26 253.37-25.65 254.23-25.29 254.88-24.67 255.52-24.05 255.92-23.21 256.33-22.36 256.35-21.41L256.35-21.41 256.35-26 261.16-26 261.16 5.69Q261.16 6.69 260.78 7.57 260.4 8.45 259.76 9.09 259.11 9.74 258.23 10.12 257.35 10.5 256.35 10.5L256.35 10.5 241.17 10.5 241.17 5.69 256.35 5.69 256.35-1 242.95-1Q241.97-1 241.09-1.38 240.21-1.76 239.57-2.4 238.92-3.05 238.54-3.93 238.16-4.81 238.16-5.81L238.16-5.81ZM242.95-5.81L256.35-5.81 256.35-21.19 242.95-21.19 242.95-5.81ZM291.16-21.19L291.16-10.55 273.95-10.55 273.95-4.81 291.16-4.81 291.16 0 273.95 0Q272.98 0 272.1-0.38 271.22-0.76 270.57-1.4 269.92-2.05 269.55-2.93 269.17-3.81 269.17-4.81L269.17-4.81 269.17-21.19Q269.17-22.19 269.55-23.07 269.92-23.95 270.57-24.6 271.22-25.24 272.1-25.62 272.98-26 273.95-26L273.95-26 286.35-26Q287.36-26 288.23-25.62 289.11-25.24 289.76-24.6 290.41-23.95 290.79-23.07 291.16-22.19 291.16-21.19L291.16-21.19ZM286.35-21.19L273.95-21.19 273.95-15.36 286.35-15.36 286.35-21.19Z" fill="white"></path></g></svg></g></svg></g></svg></g></svg></g><g><svg viewBox="0 0 189.98764969223373 102.86091907280934" height="102.86091907280934" width="189.98764969223373"><g><svg xmlns="http://www.w3.org/2000/svg" xmlns:xlink="http://www.w3.org/1999/xlink" version="1.1" x="0" y="0" viewBox="5.625 25.925000000000004 88.75 48.04999999999999" style="enable-background:new 0 0 100 100;" xml:space="preserve" height="102.86091907280934" width="189.98764969223373" class="icon-icon-0" data-fill-palette-color="accent" id="SvgjsSvg1049"><path d="M81.5 53.3L94 40.8C94.5 40.3 94.5 39.4 94 38.9L81.5 26.3C81 25.8 80.1 25.8 79.6 26.3L67.1 38.9C66.6 39.4 66.6 40.3 67.1 40.8L70.5 44.2C71.3 45 71.3 46.3 70.5 47.1L67.4 50.2C66.6 51 65.3 51 64.5 50.2L61.1 46.8C60.6 46.3 59.7 46.3 59.2 46.8L55.8 50.2C55 51 53.7 51 52.9 50.2L49.9 47C49.1 46.2 49.1 44.9 49.9 44.1L53.3 40.7C53.8 40.2 53.8 39.3 53.3 38.8L40.8 26.3C40.3 25.8 39.4 25.8 38.9 26.3L26.3 38.9C25.8 39.4 25.8 40.3 26.3 40.8L29.7 44.2C30.5 45 30.5 46.3 29.7 47.1L26.6 50.2C25.8 51 24.5 51 23.7 50.2L20.3 46.8C19.8 46.3 18.9 46.3 18.4 46.8L6 59.2C5.5 59.7 5.5 60.6 6 61.1L18.5 73.6C19 74.1 19.9 74.1 20.4 73.6L32.9 61.1C33.4 60.6 33.4 59.7 32.9 59.2L29.5 55.8C28.7 55 28.7 53.7 29.5 52.9L32.6 49.8C33.4 49 34.7 49 35.5 49.8L38.9 53.2C39.4 53.7 40.3 53.7 40.8 53.2L44.2 49.8C45 49 46.3 49 47.1 49.8L50.2 52.9C51 53.7 51 55 50.2 55.8L46.8 59.2C46.3 59.7 46.3 60.6 46.8 61.1L59.3 73.6C59.8 74.1 60.7 74.1 61.2 73.6L73.7 61.1C74.2 60.6 74.2 59.7 73.7 59.2L70.3 55.8C69.5 55 69.5 53.7 70.3 52.9L73.4 49.8C74.2 49 75.5 49 76.3 49.8L79.7 53.2C80.2 53.8 81 53.8 81.5 53.3M23.8 64.6C21.4 67 17.5 67 15 64.6 12.6 62.2 12.6 58.3 15 55.8 17.4 53.4 21.3 53.4 23.8 55.8 26.2 58.2 26.2 62.2 23.8 64.6M35.4 35.4C37.8 33 41.7 33 44.2 35.4 46.6 37.8 46.6 41.7 44.2 44.2 41.8 46.6 37.9 46.6 35.4 44.2 33 41.8 33 37.8 35.4 35.4M64.6 64.6C62.2 67 58.3 67 55.8 64.6 53.4 62.2 53.4 58.3 55.8 55.8 58.2 53.4 62.1 53.4 64.6 55.8 67 58.2 67 62.2 64.6 64.6M85 35.4C87.4 37.8 87.4 41.7 85 44.2 82.6 46.6 78.7 46.6 76.2 44.2 73.8 41.8 73.8 37.9 76.2 35.4 78.6 33 82.5 33 85 35.4" fill="black"></path></svg></g></svg></g></svg></g><defs><mask></mask></defs></svg><rect width="395.5199999999999" height="65.45092804883515" fill="black" stroke="none" visibility="hidden"></rect></g></mask><linearGradient x1="0" x2="1" y1="0.578" y2="0.595" id="9970dd3f-b38a-469a-81b8-ab37314d1c62"><stop stop-color="#dede50" offset="0"></stop><stop stop-color="#559c49" offset="1"></stop></linearGradient><rect width="395.5199999999999" height="65.45092804883515" fill="url(#9970dd3f-b38a-469a-81b8-ab37314d1c62)" mask="url(#bbd4408f-d79b-4351-80e3-62e11017633a)" data-fill-palette-color="primary"></rect></svg><rect width="395.5199999999999" height="65.45092804883515" fill="none" stroke="none" visibility="hidden"></rect></g></svg></g></svg>